<?xml version="1.0" encoding="UTF-8" standalone="no"?>
<svg
   aria-hidden="true"
   focusable="false"
   data-prefix="fas"
   data-icon="robot"
   role="img"
   viewBox="0 0 377.95277 377.95278"
   class="svg-inline--fa fa-robot fa-w-20 fa-3x"
   version="1.1"
   id="svg826"
   sodipodi:docname="CW01.svg"
   width="100mm"
   height="100mm"
   inkscape:version="1.1 (c4e8f9e, 2021-05-24)"
   xmlns:inkscape="http://www.inkscape.org/namespaces/inkscape"
   xmlns:sodipodi="http://sodipodi.sourceforge.net/DTD/sodipodi-0.dtd"
   xmlns="http://www.w3.org/2000/svg"
   xmlns:svg="http://www.w3.org/2000/svg">
  <defs
     id="defs830" />
  <sodipodi:namedview
     id="namedview828"
     pagecolor="#ffffff"
     bordercolor="#666666"
     borderopacity="1.0"
     inkscape:pageshadow="2"
     inkscape:pageopacity="0.0"
     inkscape:pagecheckerboard="0"
     showgrid="false"
     units="mm"
     inkscape:zoom="1.1035156"
     inkscape:cx="320.33982"
     inkscape:cy="256"
     inkscape:window-width="1440"
     inkscape:window-height="787"
     inkscape:window-x="0"
     inkscape:window-y="25"
     inkscape:window-maximized="1"
     inkscape:current-layer="svg826"
     inkscape:document-units="mm" />
  <path
     fill="currentColor"
     d="M 18.897651,170.07567 H 37.795287 V 283.46148 H 18.897651 A 18.874995,18.874995 0 0 1 1.4746915e-5,264.56385 V 188.9733 A 18.874995,18.874995 0 0 1 18.897651,170.07567 Z M 321.25983,141.72921 v 160.62991 a 37.832643,37.832643 0 0 1 -37.79527,37.79527 H 94.488197 A 37.832643,37.832643 0 0 1 56.692924,302.35912 V 141.72921 A 47.228737,47.228737 0 0 1 103.93701,94.485124 h 66.14173 V 56.689851 a 18.897636,18.897636 0 0 1 37.79527,0 v 37.795273 h 66.14173 a 47.228737,47.228737 0 0 1 47.24409,47.244086 z M 155.90551,188.9733 a 23.622046,23.622046 0 1 0 -23.62204,23.62205 23.620274,23.620274 0 0 0 23.62204,-23.62205 z m -4.72441,75.59055 h -37.79527 v 18.89763 h 37.79527 z m 56.69291,0 h -37.79527 v 18.89763 h 37.79527 z m 61.41732,-75.59055 a 23.622046,23.622046 0 1 0 -23.62205,23.62205 23.620274,23.620274 0 0 0 23.62205,-23.62205 z m -4.72441,75.59055 h -37.79527 v 18.89763 h 37.79527 z M 377.95274,188.9733 v 75.59055 A 18.874995,18.874995 0 0 1 359.0551,283.46148 H 340.15747 V 170.07567 h 18.89763 a 18.874995,18.874995 0 0 1 18.89764,18.89763 z"
     class=""
     id="path824"
     style="stroke-width:0.590551" />
</svg>
