<?xml version="1.0" encoding="UTF-8" standalone="no"?>
<svg
   viewBox="0 0 100 88.892319"
   version="1.1"
   id="svg934"
   sodipodi:docname="lora.svg"
   width="100"
   height="88.892319"
   inkscape:version="1.1.1 (c3084ef, 2021-09-22)"
   xmlns:inkscape="http://www.inkscape.org/namespaces/inkscape"
   xmlns:sodipodi="http://sodipodi.sourceforge.net/DTD/sodipodi-0.dtd"
   xmlns="http://www.w3.org/2000/svg"
   xmlns:svg="http://www.w3.org/2000/svg">
  <defs
     id="defs938" />
  <sodipodi:namedview
     id="namedview936"
     pagecolor="#ffffff"
     bordercolor="#666666"
     borderopacity="1.0"
     inkscape:pageshadow="2"
     inkscape:pageopacity="0.0"
     inkscape:pagecheckerboard="0"
     showgrid="false"
     inkscape:zoom="1.4882812"
     inkscape:cx="287.91601"
     inkscape:cy="255.66404"
     inkscape:window-width="1296"
     inkscape:window-height="1027"
     inkscape:window-x="0"
     inkscape:window-y="25"
     inkscape:window-maximized="0"
     inkscape:current-layer="svg934" />
  <!--! Font Awesome Free 6.0.0 by @fontawesome - https://fontawesome.com License - https://fontawesome.com/license/free (Icons: CC BY 4.0, Fonts: SIL OFL 1.1, Code: MIT License) Copyright 2022 Fonticons, Inc. -->
  <path
     d="m 27.934028,10.244748 c -2.013889,-1.1128472 -4.548611,-0.390625 -5.659722,1.628473 -1.857639,3.335069 -2.829862,7.119791 -2.829862,10.939236 0,3.303819 0.699827,6.5 2.079862,9.482639 0.702604,1.523784 2.210069,2.418402 3.784722,2.418402 0.585937,0 1.180034,-0.124774 1.744791,-0.385243 2.095487,-0.960243 2.998264,-3.581771 2.026042,-5.526215 -0.868055,-1.875 -1.302083,-3.888889 -1.302083,-5.989583 0,-2.418403 0.615798,-4.807292 1.779514,-6.911459 1.119791,-2.005208 0.390625,-4.543402 -1.623264,-5.65625 z M 10.869792,0.41019943 C 8.015625,-0.75004362 4.7881944,0.63815082 3.6371528,3.4756508 1.2234375,9.4374564 0,15.744748 0,22.065929 c 0,6.631944 1.2234375,12.951389 3.6371528,18.90625 0.8732639,2.170139 2.9548611,3.472222 5.1527778,3.472222 0.6909722,0 1.3993054,-0.121528 2.0798614,-0.399305 2.845486,-1.163195 4.21875,-4.392362 3.065972,-7.239584 -1.875,-4.635416 -2.824653,-9.53125 -2.824653,-14.583333 0,-5.045139 0.949479,-9.947917 2.824653,-14.5815976 C 15.088542,4.7985675 13.715278,1.560373 10.869792,0.41019943 Z M 96.354167,3.4756508 c -1.147396,-2.84895831 -4.380209,-4.22048609 -7.232639,-3.0659722 -2.845486,1.1501736 -4.21875,4.3888889 -3.065972,7.2309028 1.878472,4.6336806 2.833333,9.5381946 2.833333,14.5815976 0,5.045139 -0.949479,9.949653 -2.824653,14.427083 -1.151042,3.003472 0.220486,6.232639 3.067708,7.395834 0.677084,0.277777 1.388889,0.399305 2.083334,0.399305 2.197916,0 4.277778,-1.312847 5.151041,-3.472222 C 98.628472,35.017318 100,28.697873 100,22.065929 100,15.744748 98.628472,9.4374564 96.354167,3.4756508 Z M 72.951389,10.109332 c -2.088542,0.965625 -3,3.439236 -2.034722,5.527777 0.871527,1.880209 1.305555,3.894098 1.305555,5.994792 0,2.420139 -0.615798,4.807292 -1.779514,6.911458 -1.11493,2.012153 -0.385243,4.552084 1.627604,5.663195 0.640278,0.352604 1.331945,0.520833 2.015625,0.520833 1.464931,0 2.888889,-0.776041 3.649306,-2.147569 1.84809,-3.34375 2.820313,-7.128472 2.820313,-10.947917 0,-3.303819 -0.699827,-6.498264 -2.079862,-9.482639 -0.958333,-2.098958 -3.458333,-3.0000001 -5.524305,-2.03993 z m -20.555556,1.253472 c -7.170139,-1.5052088 -13.506944,3.9375 -13.506944,10.859375 0,4.10243 2.248264,7.645833 5.555555,9.569444 v 51.545139 c 0,3.067709 2.487848,5.555556 5.555556,5.555556 3.067708,0 5.555556,-2.487847 5.555556,-5.555556 V 31.788151 c 4.036458,-2.350694 6.496527,-7.111111 5.213541,-12.357639 -0.97743,-3.994791 -4.345486,-7.223958 -8.373264,-8.067708 z"
     id="path932"
     style="stroke-width:0.173611" />
</svg>
