<?xml version="1.0" encoding="UTF-8" standalone="no"?>
<svg
   viewBox="0 0 100 87.5"
   version="1.1"
   id="svg934"
   sodipodi:docname="EXT.svg"
   width="100"
   height="87.5"
   inkscape:version="1.1.1 (c3084ef, 2021-09-22)"
   xmlns:inkscape="http://www.inkscape.org/namespaces/inkscape"
   xmlns:sodipodi="http://sodipodi.sourceforge.net/DTD/sodipodi-0.dtd"
   xmlns="http://www.w3.org/2000/svg"
   xmlns:svg="http://www.w3.org/2000/svg">
  <defs
     id="defs938" />
  <sodipodi:namedview
     id="namedview936"
     pagecolor="#ffffff"
     bordercolor="#666666"
     borderopacity="1.0"
     inkscape:pageshadow="2"
     inkscape:pageopacity="0.0"
     inkscape:pagecheckerboard="0"
     showgrid="false"
     inkscape:zoom="1.4882812"
     inkscape:cx="256.33596"
     inkscape:cy="223.41207"
     inkscape:window-width="1296"
     inkscape:window-height="1027"
     inkscape:window-x="0"
     inkscape:window-y="25"
     inkscape:window-maximized="0"
     inkscape:current-layer="svg934" />
  <!--! Font Awesome Free 6.0.0 by @fontawesome - https://fontawesome.com License - https://fontawesome.com/license/free (Icons: CC BY 4.0, Fonts: SIL OFL 1.1, Code: MIT License) Copyright 2022 Fonticons, Inc. -->
  <path
     d="m 100,25 c 0,6.894531 -5.605469,12.5 -12.5,12.5 H 54.6875 V 50 h 9.003906 c 4.160156,0 6.25,5.058594 3.300781,7.832031 L 53.144531,71.67969 c -1.660156,1.83594 -4.628906,1.83594 -6.464844,0 L 32.832031,57.832031 C 30.058594,55.058594 32.148437,50 36.308594,50 H 45.3125 V 37.5 H 12.5 C 5.5957031,37.5 0,31.894531 0,25 V 12.5 C 0,5.595703 5.5957031,0 12.5,0 h 75 C 94.394531,0 100,5.595703 100,12.5 Z M 61.054688,75 H 87.5 V 62.5 H 73.554687 l 1.464844,-1.640625 C 78.320312,57.734375 79.023437,53.59375 77.929687,50 H 87.5 c 6.894531,0 12.5,5.605469 12.5,12.5 V 75 c 0,6.89453 -5.605469,12.5 -12.5,12.5 h -75 C 5.5957031,87.5 0,81.89453 0,75 V 62.5 C 0,55.605469 5.5957031,50 12.5,50 h 9.394531 c -0.917969,3.59375 -0.390625,7.734375 2.910156,10.859375 L 26.445312,62.5 H 12.5 V 75 h 26.445312 l 3.320313,3.14453 c 4.277344,4.4336 11.191406,4.4336 15.46875,0 z"
     id="path932"
     style="stroke-width:0.195312" />
</svg>
