<?xml version="1.0" encoding="UTF-8" standalone="no"?>
<svg
   aria-hidden="true"
   focusable="false"
   data-prefix="far"
   data-icon="lightbulb-on"
   role="img"
   viewBox="0 0 377.95276 377.95276"
   class="svg-inline--fa fa-lightbulb-on fa-w-20 fa-3x"
   version="1.1"
   id="svg826"
   sodipodi:docname="SL01.svg"
   width="100mm"
   height="100mm"
   inkscape:version="1.1 (c4e8f9e, 2021-05-24)"
   xmlns:inkscape="http://www.inkscape.org/namespaces/inkscape"
   xmlns:sodipodi="http://sodipodi.sourceforge.net/DTD/sodipodi-0.dtd"
   xmlns="http://www.w3.org/2000/svg"
   xmlns:svg="http://www.w3.org/2000/svg">
  <defs
     id="defs830" />
  <sodipodi:namedview
     id="namedview828"
     pagecolor="#ffffff"
     bordercolor="#666666"
     borderopacity="1.0"
     inkscape:pageshadow="2"
     inkscape:pageopacity="0.0"
     inkscape:pagecheckerboard="0"
     showgrid="false"
     units="mm"
     width="100mm"
     inkscape:zoom="1.1035156"
     inkscape:cx="320.33983"
     inkscape:cy="112.82124"
     inkscape:window-width="1920"
     inkscape:window-height="1027"
     inkscape:window-x="0"
     inkscape:window-y="25"
     inkscape:window-maximized="1"
     inkscape:current-layer="svg826"
     inkscape:document-units="mm" />
  <path
     fill="currentColor"
     d="M 66.135987,151.17912 A 14.173973,14.173973 0 0 0 51.962014,137.00515 H 14.164751 a 14.173973,14.173973 0 0 0 0,28.34794 h 37.797263 a 14.173973,14.173973 0 0 0 14.173973,-14.17397 z m -2.905665,56.23524 -32.730066,18.89863 a 14.173973,14.173973 0 1 0 14.173973,24.5446 L 77.404296,231.95896 A 14.173973,14.173973 0 0 0 63.230322,207.41436 Z M 77.404296,70.399285 44.674229,51.500654 A 14.173973,14.173973 0 1 0 30.500256,76.045251 L 63.230322,94.943882 A 14.173973,14.173973 0 1 0 77.404296,70.399285 Z M 307.64868,96.845556 a 14.055857,14.055857 0 0 0 7.08699,-1.901674 L 347.46573,76.045251 A 14.173973,14.173973 0 0 0 333.29176,51.500654 L 300.5617,70.399285 a 14.173973,14.173973 0 0 0 7.08698,26.446271 z m 56.14075,40.159594 h -37.79727 a 14.173973,14.173973 0 0 0 0,28.34794 h 37.79727 a 14.173974,14.173974 0 0 0 0,-28.34794 z m -16.33551,89.31375 -32.73006,-18.89863 a 14.173973,14.173973 0 1 0 -14.17397,24.5446 l 32.73006,18.89862 A 14.173973,14.173973 0 0 0 347.45392,226.3189 Z M 188.97709,37.787334 c -60.40475,0 -103.942472,49.018324 -103.942472,103.942466 a 103.35189,103.35189 0 0 0 25.725762,68.37762 c 9.82139,11.22106 25.24739,34.72623 30.95242,54.42805 v 0.0354 h 28.34794 v -0.0709 a 28.153055,28.153055 0 0 0 -1.25794,-8.30949 c -3.30135,-10.51827 -13.4889,-38.2402 -36.7224,-64.76325 A 75.287422,75.287422 0 0 1 113.418,141.7298 C 113.28807,98.23933 148.65213,66.135281 188.97709,66.135281 A 75.541372,75.541372 0 0 1 245.87378,191.4273 c -23.08586,26.34587 -33.30884,54.02055 -36.66924,64.64513 a 33.533258,33.533258 0 0 0 -1.32881,8.45123 v 0.0472 h 28.34794 v 0 c 5.72274,-19.70774 21.13103,-43.21881 30.95241,-54.42215 A 103.90113,103.90113 0 0 0 188.97709,37.787334 Z m 0,47.246578 a 56.760857,56.760857 0 0 0 -56.6959,56.695888 9.44932,9.44932 0 0 0 18.89864,0 37.844509,37.844509 0 0 1 37.79726,-37.79725 9.449317,9.449317 0 0 0 0,-18.898638 z M 141.76595,308.97678 a 9.4493156,9.4493156 0 0 0 1.58866,5.22075 l 14.46927,21.75114 a 9.4493156,9.4493156 0 0 0 7.86065,4.21676 h 46.56741 a 9.4493156,9.4493156 0 0 0 7.87836,-4.21676 l 14.46927,-21.76885 a 9.567432,9.567432 0 0 0 1.58866,-5.22076 l 0.0354,-25.48952 h -94.49316 z"
     class=""
     id="path824"
     style="stroke-width:0.590582" />
</svg>
