<?xml version="1.0" encoding="UTF-8" standalone="no"?>
<svg
   viewBox="0 0 377.95276 330.90552"
   version="1.1"
   id="svg826"
   sodipodi:docname="INA.svg"
   width="377.95276"
   height="330.90552"
   inkscape:version="1.1.1 (c3084ef, 2021-09-22)"
   xmlns:inkscape="http://www.inkscape.org/namespaces/inkscape"
   xmlns:sodipodi="http://sodipodi.sourceforge.net/DTD/sodipodi-0.dtd"
   xmlns="http://www.w3.org/2000/svg"
   xmlns:svg="http://www.w3.org/2000/svg">
  <defs
     id="defs830" />
  <sodipodi:namedview
     id="namedview828"
     pagecolor="#ffffff"
     bordercolor="#666666"
     borderopacity="1.0"
     inkscape:pageshadow="2"
     inkscape:pageopacity="0.0"
     inkscape:pagecheckerboard="0"
     showgrid="false"
     inkscape:zoom="1.4882812"
     inkscape:cx="287.91601"
     inkscape:cy="255.66404"
     inkscape:window-width="1920"
     inkscape:window-height="1027"
     inkscape:window-x="0"
     inkscape:window-y="25"
     inkscape:window-maximized="1"
     inkscape:current-layer="svg826" />
  <!--! Font Awesome Free 6.0.0 by @fontawesome - https://fontawesome.com License - https://fontawesome.com/license/free (Icons: CC BY 4.0, Fonts: SIL OFL 1.1, Code: MIT License) Copyright 2022 Fonticons, Inc. -->
  <path
     d="m 267.71654,78.740157 c 0,35.826773 -47.96588,99.671913 -69.02888,125.393703 -5.05249,6.88976 -14.37007,6.88976 -19.42257,0 C 158.2021,178.41207 110.23622,114.56693 110.23622,78.740157 110.23622,35.255906 145.47244,0 188.97638,0 c 43.50393,0 78.74016,35.255906 78.74016,78.740157 z m -78.74016,20.997376 c 14.50131,0 26.24672,-11.745407 26.24672,-26.246719 0,-14.494751 -11.74541,-26.24672 -26.24672,-26.24672 -14.50131,0 -26.24672,11.751969 -26.24672,26.24672 0,14.501312 11.74541,26.246719 26.24672,26.246719 z M 279.26509,117.979 c 0.32809,-0.7874 0.65617,-1.5748 0.98425,-2.42782 l 76.11549,-30.446193 c 10.36745,-4.133858 21.58793,3.47769 21.58793,14.632546 V 277.42782 c 0,6.43045 -3.93701,12.20473 -9.90814,14.63255 l -95.07874,37.99212 V 131.49606 c 2.29659,-4.52756 4.39632,-8.9895 6.29921,-13.51706 z m -180.577426,0 c 1.902886,4.52756 4.002626,8.9895 6.299216,13.51706 V 296.45669 L 21.594488,329.85564 C 11.253281,333.39895 0,326.37795 0,315.2231 V 137.53281 c 0,-6.43045 3.9206037,-12.79528 9.9015748,-14.63255 L 90.288714,90.748031 c 1.574803,9.317589 4.790026,18.569559 8.39895,27.230969 z m 116.404196,99.27822 c 9.12074,-10.82677 23.4252,-29.39633 36.87664,-49.93439 V 330.90551 L 125.98425,294.88189 V 167.32283 c 13.45145,20.53806 27.75591,39.10762 36.87664,49.93439 13.45145,17.38845 38.77953,17.38845 52.23097,0 z"
     id="path824"
     style="stroke-width:0.656168" />
</svg>
