<?xml version="1.0" encoding="UTF-8" standalone="no"?>
<svg
   viewBox="0 0 377.95276 377.95276"
   version="1.1"
   id="svg826"
   sodipodi:docname="proto.svg"
   width="377.95276"
   height="377.95276"
   inkscape:version="1.1.1 (c3084ef, 2021-09-22)"
   xmlns:inkscape="http://www.inkscape.org/namespaces/inkscape"
   xmlns:sodipodi="http://sodipodi.sourceforge.net/DTD/sodipodi-0.dtd"
   xmlns="http://www.w3.org/2000/svg"
   xmlns:svg="http://www.w3.org/2000/svg">
  <defs
     id="defs830" />
  <sodipodi:namedview
     id="namedview828"
     pagecolor="#ffffff"
     bordercolor="#666666"
     borderopacity="1.0"
     inkscape:pageshadow="2"
     inkscape:pageopacity="0.0"
     inkscape:pagecheckerboard="0"
     showgrid="false"
     inkscape:zoom="1.4882812"
     inkscape:cx="224.08399"
     inkscape:cy="223.41207"
     inkscape:window-width="1920"
     inkscape:window-height="1027"
     inkscape:window-x="0"
     inkscape:window-y="25"
     inkscape:window-maximized="1"
     inkscape:current-layer="svg826" />
  <!--! Font Awesome Free 6.0.0 by @fontawesome - https://fontawesome.com License - https://fontawesome.com/license/free (Icons: CC BY 4.0, Fonts: SIL OFL 1.1, Code: MIT License) Copyright 2022 Fonticons, Inc. -->
  <path
     d="m 53.993251,350.95613 c 0,14.93251 -12.089426,26.99663 -26.996626,26.99663 C 12.089426,377.95276 0,365.88864 0,350.95613 c 0,-14.93251 12.089426,-26.99662 26.996625,-26.99662 14.9072,0 26.996626,12.06411 26.996626,26.99662 z m 53.993249,26.99663 c -14.932507,0 -26.996624,-12.06412 -26.996624,-26.99663 0,-14.93251 12.064117,-26.99662 26.996624,-26.99662 14.93251,0 26.99663,12.06411 26.99663,26.99662 0,14.93251 -12.06412,26.99663 -26.99663,26.99663 z m 0,-323.959509 c -14.932507,0 -26.996624,-12.089426 -26.996624,-26.996626 C 80.989876,12.089426 93.053993,0 107.9865,0 c 14.93251,0 26.99663,12.089426 26.99663,26.996625 0,14.9072 -12.06412,26.996626 -26.99663,26.996626 z m 26.99663,134.983129 c 0,14.93251 -12.06412,26.99662 -26.99663,26.99662 -14.932507,0 -26.996624,-12.06411 -26.996624,-26.99662 0,-14.93251 12.064117,-26.99663 26.996624,-26.99663 14.93251,0 26.99663,12.06412 26.99663,26.99663 z m 134.98312,188.97638 c -14.9325,0 -26.99662,-12.06412 -26.99662,-26.99663 0,-14.93251 12.06412,-26.99662 26.99662,-26.99662 14.93251,0 26.99663,12.06411 26.99663,26.99662 0,14.93251 -12.06412,26.99663 -26.99663,26.99663 z M 296.96288,26.996625 c 0,14.9072 -12.06412,26.996626 -26.99663,26.996626 -14.9325,0 -26.99662,-12.089426 -26.99662,-26.996626 C 242.96963,12.089426 255.03375,0 269.96625,0 c 14.93251,0 26.99663,12.089426 26.99663,26.996625 z M 269.96625,215.973 c -14.9325,0 -26.99662,-12.06411 -26.99662,-26.99662 0,-14.93251 12.06412,-26.99663 26.99662,-26.99663 14.93251,0 26.99663,12.06412 26.99663,26.99663 0,14.93251 -12.06412,26.99662 -26.99663,26.99662 z M 215.973,350.95613 c 0,14.93251 -12.06411,26.99663 -26.99662,26.99663 -14.93251,0 -26.99663,-12.06412 -26.99663,-26.99663 0,-14.93251 12.06412,-26.99662 26.99663,-26.99662 14.93251,0 26.99662,12.06411 26.99662,26.99662 z M 188.97638,53.993251 c -14.93251,0 -26.99663,-12.089426 -26.99663,-26.996626 C 161.97975,12.089426 174.04387,0 188.97638,0 203.90889,0 215.973,12.089426 215.973,26.996625 c 0,14.9072 -12.06411,26.996626 -26.99662,26.996626 z M 215.973,188.97638 c 0,14.93251 -12.06411,26.99662 -26.99662,26.99662 -14.93251,0 -26.99663,-12.06411 -26.99663,-26.99662 0,-14.93251 12.06412,-26.99663 26.99663,-26.99663 14.93251,0 26.99662,12.06412 26.99662,26.99663 z m 134.98313,188.97638 c -14.93251,0 -26.99662,-12.06412 -26.99662,-26.99663 0,-14.93251 12.06411,-26.99662 26.99662,-26.99662 14.93251,0 26.99663,12.06411 26.99663,26.99662 0,14.93251 -12.06412,26.99663 -26.99663,26.99663 z m 0,-323.959509 c -14.93251,0 -26.99662,-12.089426 -26.99662,-26.996626 C 323.95951,12.089426 336.02362,0 350.95613,0 c 14.93251,0 26.99663,12.089426 26.99663,26.996625 0,14.9072 -12.06412,26.996626 -26.99663,26.996626 z M 53.993251,26.996625 c 0,14.9072 -12.089426,26.996626 -26.996626,26.996626 C 12.089426,53.993251 0,41.903825 0,26.996625 0,12.089426 12.089426,0 26.996625,0 41.903825,0 53.993251,12.089426 53.993251,26.996625 Z M 350.95613,215.973 c -14.93251,0 -26.99662,-12.06411 -26.99662,-26.99662 0,-14.93251 12.06411,-26.99663 26.99662,-26.99663 14.93251,0 26.99663,12.06412 26.99663,26.99663 0,14.93251 -12.06412,26.99662 -26.99663,26.99662 z M 53.993251,188.97638 c 0,14.93251 -12.089426,26.99662 -26.996626,26.99662 C 12.089426,215.973 0,203.90889 0,188.97638 c 0,-14.93251 12.089426,-26.99663 26.996625,-26.99663 14.9072,0 26.996626,12.06412 26.996626,26.99663 z m 134.983129,107.9865 c -14.93251,0 -26.99663,-12.06412 -26.99663,-26.99663 0,-14.9325 12.06412,-26.99662 26.99663,-26.99662 14.93251,0 26.99662,12.06412 26.99662,26.99662 0,14.93251 -12.06411,26.99663 -26.99662,26.99663 z m 188.97638,-26.99663 c 0,14.93251 -12.06412,26.99663 -26.99663,26.99663 -14.93251,0 -26.99662,-12.06412 -26.99662,-26.99663 0,-14.9325 12.06411,-26.99662 26.99662,-26.99662 14.93251,0 26.99663,12.06412 26.99663,26.99662 z M 26.996625,296.96288 C 12.089426,296.96288 0,284.89876 0,269.96625 c 0,-14.9325 12.089426,-26.99662 26.996625,-26.99662 14.9072,0 26.996626,12.06412 26.996626,26.99662 0,14.93251 -12.089426,26.99663 -26.996626,26.99663 z M 377.95276,107.9865 c 0,14.93251 -12.06412,26.99663 -26.99663,26.99663 -14.93251,0 -26.99662,-12.06412 -26.99662,-26.99663 0,-14.93251 12.06411,-26.99662 26.99662,-26.99662 14.93251,0 26.99663,12.06411 26.99663,26.99662 z M 26.996625,134.98313 C 12.089426,134.98313 0,122.91901 0,107.9865 0,93.05399 12.089426,80.98988 26.996625,80.98988 c 14.9072,0 26.996626,12.06411 26.996626,26.99662 0,14.93251 -12.089426,26.99663 -26.996626,26.99663 z M 215.973,107.9865 c 0,14.93251 -12.06411,26.99663 -26.99662,26.99663 -14.93251,0 -26.99663,-12.06412 -26.99663,-26.99663 0,-14.93251 12.06412,-26.99662 26.99663,-26.99662 14.93251,0 26.99662,12.06411 26.99662,26.99662 z"
     id="path824"
     style="stroke-width:0.843645" />
</svg>
