<?xml version="1.0" encoding="UTF-8" standalone="no"?>
<svg
   aria-hidden="true"
   focusable="false"
   data-prefix="fas"
   data-icon="cloud-sun-rain"
   role="img"
   viewBox="0 0 377.95276 377.95274"
   class="svg-inline--fa fa-cloud-sun-rain fa-w-18 fa-3x"
   version="1.1"
   id="svg826"
   sodipodi:docname="SW01.svg"
   width="100mm"
   height="100mm"
   inkscape:version="1.1 (c4e8f9e, 2021-05-24)"
   xmlns:inkscape="http://www.inkscape.org/namespaces/inkscape"
   xmlns:sodipodi="http://sodipodi.sourceforge.net/DTD/sodipodi-0.dtd"
   xmlns="http://www.w3.org/2000/svg"
   xmlns:svg="http://www.w3.org/2000/svg">
  <defs
     id="defs830" />
  <sodipodi:namedview
     id="namedview828"
     pagecolor="#ffffff"
     bordercolor="#666666"
     borderopacity="1.0"
     inkscape:pageshadow="2"
     inkscape:pageopacity="0.0"
     inkscape:pagecheckerboard="0"
     showgrid="false"
     units="mm"
     height="100mm"
     inkscape:zoom="1.1035156"
     inkscape:cx="287.71681"
     inkscape:cy="256"
     inkscape:window-width="1440"
     inkscape:window-height="787"
     inkscape:window-x="0"
     inkscape:window-y="25"
     inkscape:window-maximized="1"
     inkscape:current-layer="svg826"
     inkscape:document-units="mm" />
  <path
     fill="currentColor"
     d="m 334.97375,168.96325 c -4.52756,-24.40945 -25.7874,-42.979 -51.50918,-42.979 -8.07087,0 -15.68242,1.9685 -22.50656,5.24934 -11.41733,-15.81365 -29.92126,-26.24672 -50.98426,-26.24672 -34.7769,0 -62.99212,28.21522 -62.99212,62.99213 0,0.32808 0.13123,0.72178 0.13123,1.04987 -24.01575,4.85564 -42.12598,25.98425 -42.12598,51.44357 0,29.00262 23.49081,52.49343 52.49343,52.49343 h 167.97901 c 29.00262,0 52.49344,-23.49081 52.49344,-52.49343 0,-25.72179 -18.50394,-47.04725 -42.97901,-51.50919 z M 81.430444,191.53543 c -24.540682,-24.54068 -24.540682,-64.50131 0,-89.10761 22.703416,-22.703413 58.464566,-24.146982 83.136486,-4.855644 13.12336,-8.464567 28.60892,-13.582677 45.40682,-13.582677 0.45932,0 0.85302,0.131234 1.31234,0.131234 l 5.83989,-17.519685 c 2.23098,-6.692914 -4.13385,-12.992126 -10.82677,-10.761155 L 156.88976,72.309709 133.5958,25.721782 c -3.14961,-6.299212 -12.13911,-6.299212 -15.28871,0 L 95.013121,72.309709 45.603673,55.839893 C 38.910759,53.608922 32.611547,59.973751 34.842518,66.666664 L 51.312334,116.07611 4.7244073,139.37007 c -6.2992125,3.14961 -6.2992125,12.13911 0,15.28872 L 51.312334,177.95275 34.842518,227.3622 c -2.230971,6.69291 4.133858,12.99213 10.826771,10.82677 l 38.845145,-12.92651 c -0.131234,-1.5748 -0.459318,-3.08399 -0.459318,-4.72441 0,-8.2021 1.509186,-16.07611 4.068242,-23.55643 -2.362205,-1.77165 -4.658793,-3.41207 -6.692914,-5.44619 z m 45.800526,-38.05775 c 2.82152,-16.07611 10.36746,-30.44619 20.93176,-41.99474 -6.43045,-4.06824 -14.042,-6.49607 -22.17848,-6.49607 -23.16273,0 -41.994751,18.83202 -41.994751,41.99475 0,12.27034 5.380578,23.22835 13.845145,30.90551 7.414696,-10.43307 17.454066,-18.96325 29.396326,-24.40945 z M 344.1601,295.3412 c -4.98687,-2.82152 -11.41732,-1.1811 -14.30446,3.93701 l -24.01574,41.99475 c -2.88714,5.05249 -1.11549,11.41732 3.937,14.30446 1.64042,0.91864 3.41208,1.37796 5.18373,1.37796 3.60892,0 7.15223,-1.90289 9.12073,-5.31497 l 24.01575,-41.99475 c 2.82153,-5.05249 1.11549,-11.41732 -3.93701,-14.30446 z m -62.99212,0 c -4.98688,-2.82152 -11.41732,-1.1811 -14.30446,3.93701 l -24.01575,41.99475 c -2.88714,5.05249 -1.11549,11.41732 3.93701,14.30446 1.64042,0.91864 3.41207,1.37796 5.18372,1.37796 3.60893,0 7.15223,-1.90289 9.12074,-5.31497 l 24.01575,-41.99475 c 2.82152,-5.05249 1.11548,-11.41732 -3.93701,-14.30446 z m -62.99213,0 c -4.98687,-2.82152 -11.41732,-1.1811 -14.30446,3.93701 l -24.01575,41.99475 c -2.88714,5.05249 -1.11548,11.41732 3.93701,14.30446 1.64042,0.91864 3.41207,1.37796 5.18373,1.37796 3.60892,0 7.15223,-1.90289 9.12073,-5.31497 l 24.01575,-41.99475 c 2.82152,-5.05249 1.11549,-11.41732 -3.93701,-14.30446 z m -62.99212,0 c -4.98688,-2.82152 -11.41733,-1.1811 -14.30446,3.93701 l -24.01575,41.99475 c -2.88714,5.05249 -1.11549,11.41732 3.937,14.30446 1.64042,0.91864 3.41208,1.37796 5.18373,1.37796 3.60893,0 7.15223,-1.90289 9.12074,-5.31497 l 24.01574,-41.99475 c 2.82153,-5.05249 1.11549,-11.41732 -3.937,-14.30446 z"
     class=""
     id="path824"
     style="stroke-width:0.656168" />
</svg>
