<?xml version="1.0" encoding="UTF-8" standalone="no"?>
<svg
   aria-hidden="true"
   focusable="false"
   data-prefix="fas"
   data-icon="wheat"
   role="img"
   viewBox="0 0 377.95275 377.95275"
   class="svg-inline--fa fa-wheat fa-w-16 fa-3x"
   version="1.1"
   id="svg1869"
   sodipodi:docname="wheat.svg"
   width="100mm"
   height="100mm"
   inkscape:version="1.1 (c4e8f9e, 2021-05-24)"
   xmlns:inkscape="http://www.inkscape.org/namespaces/inkscape"
   xmlns:sodipodi="http://sodipodi.sourceforge.net/DTD/sodipodi-0.dtd"
   xmlns="http://www.w3.org/2000/svg"
   xmlns:svg="http://www.w3.org/2000/svg">
  <defs
     id="defs1873" />
  <sodipodi:namedview
     id="namedview1871"
     pagecolor="#ffffff"
     bordercolor="#666666"
     borderopacity="1.0"
     inkscape:pageshadow="2"
     inkscape:pageopacity="0.0"
     inkscape:pagecheckerboard="0"
     showgrid="false"
     inkscape:zoom="1.3996458"
     inkscape:cx="188.97638"
     inkscape:cy="188.97638"
     inkscape:window-width="1296"
     inkscape:window-height="1003"
     inkscape:window-x="420"
     inkscape:window-y="94"
     inkscape:window-maximized="0"
     inkscape:current-layer="svg1869"
     units="mm"
     inkscape:document-units="mm" />
  <path
     fill="currentColor"
     d="M 355.5842,83.823372 C 374.33407,63.574988 379.55304,30.615078 377.54518,0.40859224 356.15261,-1.0234846 318.30592,0.21666443 294.46258,22.465527 267.00214,50.036694 271.58626,99.45811 272.49422,105.88031 c 30.69369,2.05215 62.74563,-3.06346 83.08998,-22.056938 z m -32.11838,41.338298 c -11.88476,2.85678 -24.53723,4.76129 -38.51843,4.76129 -4.68009,0 -9.36756,-0.16241 -14.0255,-0.47244 l -19.11896,-1.27705 -2.69437,-18.97133 C 248.87234,107.5117 245.4324,81.64573 252.54111,53.188741 243.04807,29.618529 222.28296,12.271208 218.73967,9.6137454 198.1591,27.610669 181.23255,50.974191 180.37625,75.695967 c 0.80462,21.023478 13.77451,41.633573 30.21387,58.264863 l -30.61987,30.61987 c 1.17372,-4.40696 2.06692,-8.9025 2.22932,-13.57521 -0.0665,-34.59129 -34.01551,-62.775158 -38.62178,-66.237239 -20.58057,17.996929 -37.50713,41.360449 -38.36342,66.082229 0.812,21.02347 13.77451,41.63357 30.21387,58.26485 l -30.61987,30.61987 c 1.17371,-4.40696 2.06691,-8.9025 2.22931,-13.5752 -0.0664,-34.5913 -34.015507,-62.77516 -38.621772,-66.23724 -20.580567,17.99692 -37.507125,41.36044 -38.356037,66.08222 0.80462,21.02347 13.774511,41.63357 30.213868,58.26485 L 6.9251867,337.63315 c -9.227299,9.2273 -9.227299,24.17552 0,33.40282 4.6136503,4.61365 10.6519943,6.91679 16.6977203,6.91679 6.045726,0 12.091453,-2.30314 16.705102,-6.92417 l 53.326404,-53.32641 c 16.778917,16.80845 37.174937,29.65285 58.611797,30.39103 24.51509,-0.94487 48.50607,-18.37339 66.23724,-38.62178 -12.54912,-14.35029 -37.11588,-37.35948 -66.08222,-38.36341 -4.88678,0.008 -9.58901,0.81938 -14.17313,2.00048 l 30.56819,-30.5682 c 16.77892,16.80845 37.17494,29.65285 58.61181,30.39103 24.51508,-0.94487 48.50606,-18.3734 66.23724,-38.62178 -12.54913,-14.3503 -37.11589,-37.35949 -66.08222,-38.36342 -4.88678,0.008 -9.58901,0.81939 -14.17313,2.00048 l 30.56819,-30.5682 c 16.77892,16.80845 37.17494,29.65285 58.6118,30.39104 24.51509,-0.94488 48.50607,-18.3734 66.23724,-38.62179 -9.41922,-10.77748 -25.61498,-26.42698 -45.3614,-33.98599 z"
     class=""
     id="path1867"
     style="stroke-width:0.738183" />
</svg>
