<?xml version="1.0" encoding="UTF-8" standalone="no"?>
<svg
   aria-hidden="true"
   focusable="false"
   data-prefix="fas"
   data-icon="desktop"
   role="img"
   viewBox="0 0 377.95276 377.95274"
   class="svg-inline--fa fa-desktop fa-w-18 fa-3x"
   version="1.1"
   id="svg826"
   sodipodi:docname="OD01.svg"
   width="100mm"
   height="100mm"
   inkscape:version="1.1 (c4e8f9e, 2021-05-24)"
   xmlns:inkscape="http://www.inkscape.org/namespaces/inkscape"
   xmlns:sodipodi="http://sodipodi.sourceforge.net/DTD/sodipodi-0.dtd"
   xmlns="http://www.w3.org/2000/svg"
   xmlns:svg="http://www.w3.org/2000/svg">
  <defs
     id="defs830" />
  <sodipodi:namedview
     id="namedview828"
     pagecolor="#ffffff"
     bordercolor="#666666"
     borderopacity="1.0"
     inkscape:pageshadow="2"
     inkscape:pageopacity="0.0"
     inkscape:pagecheckerboard="0"
     showgrid="false"
     units="mm"
     height="100mm"
     inkscape:zoom="1.1035156"
     inkscape:cx="287.71681"
     inkscape:cy="256"
     inkscape:window-width="1440"
     inkscape:window-height="787"
     inkscape:window-x="0"
     inkscape:window-y="25"
     inkscape:window-maximized="1"
     inkscape:current-layer="svg826"
     inkscape:document-units="mm" />
  <path
     fill="currentColor"
     d="M 346.45669,20.997373 H 31.496061 C 14.10761,20.997373 -2.0472441e-6,35.104985 -2.0472441e-6,52.493436 V 262.46719 C -2.0472441e-6,279.85564 14.10761,293.96325 31.496061,293.96325 H 157.48031 l -10.49868,31.49606 H 99.737531 c -8.727034,0 -15.748032,7.021 -15.748032,15.74803 0,8.72704 7.020998,15.74804 15.748032,15.74804 H 278.21522 c 8.72704,0 15.74803,-7.021 15.74803,-15.74804 0,-8.72703 -7.02099,-15.74803 -15.74803,-15.74803 h -47.24409 l -10.49869,-31.49606 h 125.98425 c 17.38845,0 31.49607,-14.10761 31.49607,-31.49606 V 52.493436 c 0,-17.388451 -14.10762,-31.496063 -31.49607,-31.496063 z M 335.95801,251.9685 H 41.994749 V 62.992124 H 335.95801 Z"
     class=""
     id="path824"
     style="stroke-width:0.656168" />
</svg>
